<svg width="960" height="960" xmlns="http://www.w3.org/2000/svg" xmlns:xlink="http://www.w3.org/1999/xlink" overflow="hidden"><defs><filter id="fx0" x="-10%" y="-10%" width="120%" height="120%" filterUnits="userSpaceOnUse" primitiveUnits="userSpaceOnUse"><feComponentTransfer color-interpolation-filters="sRGB"><feFuncR type="discrete" tableValues="0 0"/><feFuncG type="discrete" tableValues="0 0"/><feFuncB type="discrete" tableValues="0 0"/><feFuncA type="linear" slope="0.4" intercept="0"/></feComponentTransfer><feGaussianBlur stdDeviation="1.77778 1.77778"/></filter><filter id="fx1" x="-10%" y="-10%" width="120%" height="120%" filterUnits="userSpaceOnUse" primitiveUnits="userSpaceOnUse"><feComponentTransfer color-interpolation-filters="sRGB"><feFuncR type="discrete" tableValues="0 0"/><feFuncG type="discrete" tableValues="0 0"/><feFuncB type="discrete" tableValues="0 0"/><feFuncA type="linear" slope="0.4" intercept="0"/></feComponentTransfer><feGaussianBlur stdDeviation="1.77778 1.77778"/></filter><filter id="fx2" x="-10%" y="-10%" width="120%" height="120%" filterUnits="userSpaceOnUse" primitiveUnits="userSpaceOnUse"><feComponentTransfer color-interpolation-filters="sRGB"><feFuncR type="discrete" tableValues="0 0"/><feFuncG type="discrete" tableValues="0 0"/><feFuncB type="discrete" tableValues="0 0"/><feFuncA type="linear" slope="0.4" intercept="0"/></feComponentTransfer><feGaussianBlur stdDeviation="1.77778 1.77778"/></filter><filter id="fx3" x="-10%" y="-10%" width="120%" height="120%" filterUnits="userSpaceOnUse" primitiveUnits="userSpaceOnUse"><feComponentTransfer color-interpolation-filters="sRGB"><feFuncR type="discrete" tableValues="0 0"/><feFuncG type="discrete" tableValues="0 0"/><feFuncB type="discrete" tableValues="0 0"/><feFuncA type="linear" slope="0.4" intercept="0"/></feComponentTransfer><feGaussianBlur stdDeviation="1.77778 1.77778"/></filter><filter id="fx4" x="-10%" y="-10%" width="120%" height="120%" filterUnits="userSpaceOnUse" primitiveUnits="userSpaceOnUse"><feComponentTransfer color-interpolation-filters="sRGB"><feFuncR type="discrete" tableValues="0 0"/><feFuncG type="discrete" tableValues="0 0"/><feFuncB type="discrete" tableValues="0 0"/><feFuncA type="linear" slope="0.4" intercept="0"/></feComponentTransfer><feGaussianBlur stdDeviation="1.77778 1.77778"/></filter><filter id="fx5" x="-10%" y="-10%" width="120%" height="120%" filterUnits="userSpaceOnUse" primitiveUnits="userSpaceOnUse"><feComponentTransfer color-interpolation-filters="sRGB"><feFuncR type="discrete" tableValues="0 0"/><feFuncG type="discrete" tableValues="0 0"/><feFuncB type="discrete" tableValues="0 0"/><feFuncA type="linear" slope="0.4" intercept="0"/></feComponentTransfer><feGaussianBlur stdDeviation="1.77778 1.77778"/></filter><filter id="fx6" x="-10%" y="-10%" width="120%" height="120%" filterUnits="userSpaceOnUse" primitiveUnits="userSpaceOnUse"><feComponentTransfer color-interpolation-filters="sRGB"><feFuncR type="discrete" tableValues="0 0"/><feFuncG type="discrete" tableValues="0 0"/><feFuncB type="discrete" tableValues="0 0"/><feFuncA type="linear" slope="0.4" intercept="0"/></feComponentTransfer><feGaussianBlur stdDeviation="1.77778 1.77778"/></filter><filter id="fx7" x="-10%" y="-10%" width="120%" height="120%" filterUnits="userSpaceOnUse" primitiveUnits="userSpaceOnUse"><feComponentTransfer color-interpolation-filters="sRGB"><feFuncR type="discrete" tableValues="0 0"/><feFuncG type="discrete" tableValues="0 0"/><feFuncB type="discrete" tableValues="0 0"/><feFuncA type="linear" slope="0.4" intercept="0"/></feComponentTransfer><feGaussianBlur stdDeviation="1.77778 1.77778"/></filter><filter id="fx8" x="-10%" y="-10%" width="120%" height="120%" filterUnits="userSpaceOnUse" primitiveUnits="userSpaceOnUse"><feComponentTransfer color-interpolation-filters="sRGB"><feFuncR type="discrete" tableValues="0 0"/><feFuncG type="discrete" tableValues="0 0"/><feFuncB type="discrete" tableValues="0 0"/><feFuncA type="linear" slope="0.4" intercept="0"/></feComponentTransfer><feGaussianBlur stdDeviation="1.77778 1.77778"/></filter><filter id="fx9" x="-10%" y="-10%" width="120%" height="120%" filterUnits="userSpaceOnUse" primitiveUnits="userSpaceOnUse"><feComponentTransfer color-interpolation-filters="sRGB"><feFuncR type="discrete" tableValues="0 0"/><feFuncG type="discrete" tableValues="0 0"/><feFuncB type="discrete" tableValues="0 0"/><feFuncA type="linear" slope="0.4" intercept="0"/></feComponentTransfer><feGaussianBlur stdDeviation="1.77778 1.77778"/></filter><filter id="fx10" x="-10%" y="-10%" width="120%" height="120%" filterUnits="userSpaceOnUse" primitiveUnits="userSpaceOnUse"><feComponentTransfer color-interpolation-filters="sRGB"><feFuncR type="discrete" tableValues="0 0"/><feFuncG type="discrete" tableValues="0 0"/><feFuncB type="discrete" tableValues="0 0"/><feFuncA type="linear" slope="0.4" intercept="0"/></feComponentTransfer><feGaussianBlur stdDeviation="1.77778 1.77778"/></filter><filter id="fx11" x="-10%" y="-10%" width="120%" height="120%" filterUnits="userSpaceOnUse" primitiveUnits="userSpaceOnUse"><feComponentTransfer color-interpolation-filters="sRGB"><feFuncR type="discrete" tableValues="0 0"/><feFuncG type="discrete" tableValues="0 0"/><feFuncB type="discrete" tableValues="0 0"/><feFuncA type="linear" slope="0.4" intercept="0"/></feComponentTransfer><feGaussianBlur stdDeviation="1.77778 1.77778"/></filter><filter id="fx12" x="-10%" y="-10%" width="120%" height="120%" filterUnits="userSpaceOnUse" primitiveUnits="userSpaceOnUse"><feComponentTransfer color-interpolation-filters="sRGB"><feFuncR type="discrete" tableValues="0 0"/><feFuncG type="discrete" tableValues="0 0"/><feFuncB type="discrete" tableValues="0 0"/><feFuncA type="linear" slope="0.4" intercept="0"/></feComponentTransfer><feGaussianBlur stdDeviation="1.77778 1.77778"/></filter><filter id="fx13" x="-10%" y="-10%" width="120%" height="120%" filterUnits="userSpaceOnUse" primitiveUnits="userSpaceOnUse"><feComponentTransfer color-interpolation-filters="sRGB"><feFuncR type="discrete" tableValues="0 0"/><feFuncG type="discrete" tableValues="0 0"/><feFuncB type="discrete" tableValues="0 0"/><feFuncA type="linear" slope="0.4" intercept="0"/></feComponentTransfer><feGaussianBlur stdDeviation="1.77778 1.77778"/></filter><filter id="fx14" x="-10%" y="-10%" width="120%" height="120%" filterUnits="userSpaceOnUse" primitiveUnits="userSpaceOnUse"><feComponentTransfer color-interpolation-filters="sRGB"><feFuncR type="discrete" tableValues="0 0"/><feFuncG type="discrete" tableValues="0 0"/><feFuncB type="discrete" tableValues="0 0"/><feFuncA type="linear" slope="0.4" intercept="0"/></feComponentTransfer><feGaussianBlur stdDeviation="1.77778 1.77778"/></filter><filter id="fx15" x="-10%" y="-10%" width="120%" height="120%" filterUnits="userSpaceOnUse" primitiveUnits="userSpaceOnUse"><feComponentTransfer color-interpolation-filters="sRGB"><feFuncR type="discrete" tableValues="0 0"/><feFuncG type="discrete" tableValues="0 0"/><feFuncB type="discrete" tableValues="0 0"/><feFuncA type="linear" slope="0.4" intercept="0"/></feComponentTransfer><feGaussianBlur stdDeviation="1.77778 1.77778"/></filter><filter id="fx16" x="-10%" y="-10%" width="120%" height="120%" filterUnits="userSpaceOnUse" primitiveUnits="userSpaceOnUse"><feComponentTransfer color-interpolation-filters="sRGB"><feFuncR type="discrete" tableValues="0 0"/><feFuncG type="discrete" tableValues="0 0"/><feFuncB type="discrete" tableValues="0 0"/><feFuncA type="linear" slope="0.4" intercept="0"/></feComponentTransfer><feGaussianBlur stdDeviation="1.77778 1.77778"/></filter><filter id="fx17" x="-10%" y="-10%" width="120%" height="120%" filterUnits="userSpaceOnUse" primitiveUnits="userSpaceOnUse"><feComponentTransfer color-interpolation-filters="sRGB"><feFuncR type="discrete" tableValues="0 0"/><feFuncG type="discrete" tableValues="0 0"/><feFuncB type="discrete" tableValues="0 0"/><feFuncA type="linear" slope="0.4" intercept="0"/></feComponentTransfer><feGaussianBlur stdDeviation="1.77778 1.77778"/></filter><filter id="fx18" x="-10%" y="-10%" width="120%" height="120%" filterUnits="userSpaceOnUse" primitiveUnits="userSpaceOnUse"><feComponentTransfer color-interpolation-filters="sRGB"><feFuncR type="discrete" tableValues="0.847059 0.847059"/><feFuncG type="discrete" tableValues="0.431373 0.431373"/><feFuncB type="discrete" tableValues="0.8 0.8"/><feFuncA type="linear" slope="1" intercept="0"/></feComponentTransfer><feGaussianBlur stdDeviation="0.392625 0.392625"/></filter><clipPath id="clip19"><rect x="2" y="1" width="154" height="58"/></clipPath></defs><g><rect x="0" y="0" width="960" height="960" fill="none"/><path d="M68 782C171 744.25 274 720.656 377 711.218L274 649.875C411.333 624.708 548.667 624.708 686 649.875L583 711.218C686 720.656 789 744.25 892 782L789 522.469 892 329C823.333 303.834 754.667 284.959 686 272.375L686 196.875C548.667 171.708 411.333 171.708 274 196.875L274 272.375C205.333 284.959 136.667 303.834 68 329L171 522.469Z" fill="#002060" fill-rule="evenodd"/><path d="M377 635.718 377 711.218 274 649.875C411.333 624.708 548.667 624.708 686 649.875L583 711.218 583 635.718C514.333 629.427 445.667 629.427 377 635.718Z" fill="#001A4D" fill-rule="evenodd"/><path d="M68 782 171 522.469 68 329C136.667 303.834 205.333 284.959 274 272.375L274 196.875C411.333 171.708 548.667 171.708 686 196.875L686 272.375C754.667 284.959 823.333 303.834 892 329L789 522.469 892 782C789 744.25 686 720.656 583 711.218L686 649.875C548.667 624.708 411.333 624.708 274 649.875L377 711.218C274 720.656 171 744.25 68 782ZM274 649.875 274 272.375M686 272.375 686 649.875M377 635.718 377 711.218M583 711.218 583 635.718" stroke="#FFC000" stroke-width="8" stroke-miterlimit="8" fill="none" fill-rule="evenodd"/><g><g><g><path d="M676.125 453.094C676.125 420.281 657.75 372.188 618.281 372.188L533.906 372.188C531.812 367.978 528.191 364.725 523.781 363.094 519.271 361.269 514.229 361.269 509.719 363.094 506.121 359.828 501.452 357.994 496.594 357.938 491.128 357.891 485.892 360.135 482.156 364.125 477.137 361.922 471.425 361.922 466.406 364.125 462.671 365.803 459.568 368.627 457.547 372.188 457.547 372.188 333.422 372.188 333.047 372.469 306.094 375.516 285.469 409.266 285.469 451.875 285.469 496.547 308.109 531.562 337.031 531.562L447.188 531.562 447.188 601.875 494.062 565.547 540.938 601.875 540.938 531.562 651.094 531.562C656.272 531.562 660.469 527.365 660.469 522.188 660.469 517.01 656.272 512.812 651.094 512.812 637.516 513.423 625.995 502.95 625.312 489.375L653.438 489.375C664.406 489.375 676.125 480 676.125 453.094ZM495.656 391.781C518.386 391.781 536.812 410.208 536.812 432.938 536.812 455.668 518.385 474.094 495.655 474.094 472.999 474.093 454.603 455.782 454.5 433.125 454.396 410.395 472.739 391.885 495.468 391.782 495.531 391.781 495.593 391.781 495.656 391.781ZM438.094 390.938C438 392.123 438 393.315 438.094 394.5 428.08 398.441 423.135 409.734 427.031 419.766 423.656 423.403 421.751 428.163 421.688 433.125 421.744 438.46 423.98 443.541 427.875 447.188 425.674 452.19 425.674 457.888 427.875 462.891 429.165 465.922 431.196 468.582 433.781 470.625L381.188 470.625C384.47 463.244 386.193 455.265 386.25 447.188 386.25 423.75 380.531 404.25 370.922 390.938ZM337.031 512.812C321.188 512.812 304.219 488.344 304.219 451.875 304.219 415.406 321.188 390.938 337.031 390.938 354.703 390.938 367.5 414.375 367.5 447.188 367.5 447.188 367.172 470.625 353.438 470.625 346.781 470.625 339.375 459.609 339.375 444.844 339.352 441.692 339.682 438.547 340.359 435.469 341.485 430.408 338.295 425.392 333.234 424.266 328.173 423.14 323.157 426.33 322.031 431.391 321.071 435.81 320.6 440.321 320.625 444.844 320.625 469.828 335.062 489.375 353.438 489.375L447.188 489.375 447.188 512.812ZM494.062 541.828 465.938 563.625 465.938 501.047C467.024 501.727 468.169 502.307 469.359 502.781 473.882 504.54 478.899 504.54 483.422 502.781 487.035 506.135 491.759 508.038 496.688 508.125 502.149 508.149 507.376 505.909 511.125 501.938 514.616 503.406 518.45 503.86 522.188 503.25L522.188 563.625ZM540.938 512.812 540.938 491.016C542.364 490.607 543.746 490.058 545.062 489.375L606.562 489.375C606.563 497.785 609.203 505.982 614.109 512.812ZM556.875 470.625C561.324 468.567 564.79 464.848 566.531 460.266 568.276 455.74 568.276 450.728 566.531 446.203 569.843 442.635 571.685 437.947 571.688 433.078 571.711 427.617 569.471 422.39 565.5 418.641 567.68 413.617 567.68 407.914 565.5 402.891 563.567 398.368 559.954 394.771 555.422 392.859 555.336 392.208 555.195 391.565 555 390.938L618.281 390.938C637.031 390.938 649.125 411.328 654.234 430.406 660.188 452.812 656.25 468.984 653.438 470.625Z" stroke="#A02B93" stroke-width="3" fill="#FFFFFF"/></g></g></g><g><g><g><path d="M317.25 185.556 317.25 253.562C317.25 285.531 389.906 317.5 480 317.5 570.094 317.5 642.75 285.531 642.75 253.562L642.75 185.556 480 243.1 317.25 185.556Z" stroke="#FFC000" stroke-width="3"/><path d="M480 218.106 733.425 129.175 480 38.5 226.575 129.175 259.125 140.8 259.125 247.75C259.125 254.144 264.356 259.375 270.75 259.375 277.144 259.375 282.375 254.144 282.375 247.75L282.375 148.938 480 218.106Z" stroke="#FFC000" stroke-width="3"/></g></g></g><path d="M789.5 743.875C789.5 747.948 786.198 751.25 782.125 751.25L782.125 743.875C782.125 745.911 780.474 747.562 778.438 747.562 776.401 747.562 774.75 745.911 774.75 743.875L774.75 751.25 178.875 751.25C174.802 751.25 171.5 754.552 171.5 758.625L171.5 847.125C171.5 851.198 174.802 854.5 178.875 854.5 182.948 854.5 186.25 851.198 186.25 847.125L186.25 839.75 782.125 839.75C786.198 839.75 789.5 836.448 789.5 832.375ZM178.875 766C182.948 766 186.25 762.699 186.25 758.625 186.25 756.589 184.599 754.938 182.562 754.938 180.526 754.938 178.875 756.589 178.875 758.625Z" fill="#002060" fill-rule="evenodd"/><path d="M178.875 766C182.948 766 186.25 762.699 186.25 758.625 186.25 756.589 184.599 754.938 182.562 754.938 180.526 754.938 178.875 756.589 178.875 758.625ZM782.125 751.25C786.198 751.25 789.5 747.948 789.5 743.875 789.5 739.802 786.198 736.5 782.125 736.5 778.052 736.5 774.75 739.802 774.75 743.875 774.75 745.911 776.401 747.562 778.438 747.562 780.474 747.562 782.125 745.911 782.125 743.875Z" fill="#001A4D" fill-rule="evenodd"/><path d="M171.5 758.625C171.5 754.552 174.802 751.25 178.875 751.25L774.75 751.25 774.75 743.875C774.75 739.802 778.052 736.5 782.125 736.5 786.198 736.5 789.5 739.802 789.5 743.875L789.5 832.375C789.5 836.448 786.198 839.75 782.125 839.75L186.25 839.75 186.25 847.125C186.25 851.198 182.948 854.5 178.875 854.5 174.802 854.5 171.5 851.198 171.5 847.125ZM774.75 751.25 782.125 751.25C786.198 751.25 789.5 747.948 789.5 743.875M782.125 751.25 782.125 743.875C782.125 745.911 780.474 747.562 778.438 747.562 776.401 747.562 774.75 745.911 774.75 743.875M178.875 766 178.875 758.625C178.875 756.588 180.526 754.937 182.562 754.937 184.599 754.937 186.25 756.588 186.25 758.625 186.25 762.698 182.948 766 178.875 766 174.802 766 171.5 762.698 171.5 758.625M186.25 758.625 186.25 839.75" stroke="#FFC000" stroke-width="3" stroke-miterlimit="8" fill="none" fill-rule="evenodd"/><text fill="#FFFFFF" font-family="Biome,Biome_MSFontService,sans-serif" font-weight="400" font-size="24" transform="translate(253.521 788)">Disciplined Education, Prosperous Life</text><text fill="#FFFFFF" font-family="Biome,Biome_MSFontService,sans-serif" font-weight="400" font-size="26.6667" transform="translate(417.354 819)">EST. 2025</text><g filter="url(#fx0)" transform="translate(94 660)"><g><path d="M18.7226 93.2845C14.5084 87.7139 11.4854 81.9561 9.6537 76.0111 7.82198 70.0662 7.58832 64.3879 8.95276 58.9763 10.3172 53.5648 13.6838 48.8282 19.0526 44.7666L32.245 62.2051C28.7429 64.791 27.1265 68.0448 27.3959 71.9665 27.6653 75.8882 29.1894 79.6857 31.9684 83.3591 34.7168 86.9921 37.668 89.488 40.8221 90.8466 43.9761 92.2052 46.966 91.8157 49.7916 89.678 51.4063 88.4565 52.4475 86.8755 52.9152 84.9349 53.383 82.9943 53.1715 80.2189 52.2808 76.6085 51.3902 72.9981 49.7372 68.0445 47.3219 61.7477 44.4661 54.1973 42.5409 47.6884 41.5464 42.2208 40.5518 36.7532 40.9137 31.8621 42.6319 27.5474 44.3501 23.2328 47.7927 19.121 52.9597 15.2122 58.7322 10.8453 64.4634 8.73096 70.1533 8.86932 75.8432 9.00763 81.3556 10.8829 86.6905 14.4951 92.0254 18.1072 97.0137 22.9811 101.655 29.1169 106.328 35.293 109.656 41.5178 111.641 47.7911 113.626 54.0644 113.801 60.1049 112.165 65.9124 110.528 71.7199 106.622 76.9598 100.446 81.6321L87.2538 64.1936C90.3413 61.731 92.2641 59.1339 93.0221 56.4025 93.7802 53.6711 93.6647 50.8547 92.6758 47.9534 91.6868 45.0521 90.0624 42.1078 87.8026 39.1207 85.6344 36.2546 83.3827 33.9913 81.0474 32.3306 78.7121 30.67 76.3622 29.7661 73.9978 29.619 71.6334 29.4719 69.3411 30.2382 67.1209 31.9177 64.9815 33.5363 63.6124 35.397 63.0137 37.5001 62.4151 39.6033 62.5482 42.4221 63.4133 45.9566 64.2784 49.4911 65.8618 54.1641 68.1637 59.9755 70.7938 66.808 72.6899 73.0058 73.8519 78.5688 75.0139 84.132 74.9084 89.1941 73.5353 93.7553 72.1623 98.3166 69.0134 102.46 64.0887 106.186 58.8006 110.186 53.5219 112.164 48.2524 112.12 42.983 112.077 37.851 110.39 32.8565 107.059 27.8619 103.729 23.1506 99.1377 18.7226 93.2845Z" stroke="#FF0000" stroke-width="3" stroke-linejoin="round" stroke-miterlimit="10" fill="#FF0000" fill-rule="evenodd"/></g></g><path d="M112.723 749.284C108.508 743.714 105.485 737.956 103.654 732.011 101.822 726.066 101.588 720.388 102.953 714.976 104.317 709.565 107.684 704.828 113.053 700.767L126.245 718.205C122.743 720.791 121.127 724.045 121.396 727.966 121.665 731.888 123.189 735.686 125.968 739.359 128.717 742.992 131.668 745.488 134.822 746.847 137.976 748.205 140.966 747.816 143.792 745.678 145.406 744.457 146.448 742.875 146.915 740.935 147.383 738.994 147.172 736.219 146.281 732.608 145.39 728.998 143.737 724.044 141.322 717.748 138.466 710.197 136.541 703.688 135.546 698.221 134.552 692.753 134.914 687.862 136.632 683.547 138.35 679.233 141.793 675.121 146.96 671.212 152.732 666.845 158.463 664.731 164.153 664.869 169.843 665.008 175.356 666.883 180.69 670.495 186.025 674.107 191.014 678.981 195.655 685.117 200.328 691.293 203.656 697.518 205.641 703.791 207.626 710.064 207.801 716.105 206.165 721.912 204.528 727.72 200.622 732.96 194.446 737.632L181.254 720.194C184.341 717.731 186.264 715.134 187.022 712.402 187.78 709.671 187.665 706.855 186.676 703.953 185.687 701.052 184.062 698.108 181.803 695.121 179.634 692.255 177.383 689.991 175.047 688.331 172.712 686.67 170.362 685.766 167.998 685.619 165.633 685.472 163.341 686.238 161.121 687.918 158.981 689.536 157.612 691.397 157.014 693.5 156.415 695.603 156.548 698.422 157.413 701.957 158.278 705.491 159.862 710.164 162.164 715.976 164.794 722.808 166.69 729.006 167.852 734.569 169.014 740.132 168.908 745.194 167.535 749.755 166.162 754.317 163.013 758.46 158.089 762.186 152.801 766.186 147.522 768.164 142.252 768.12 136.983 768.077 131.851 766.39 126.856 763.059 121.862 759.729 117.151 755.138 112.723 749.284Z" stroke="#FF0000" stroke-width="3" stroke-linejoin="round" stroke-miterlimit="10" fill="#FF0000" fill-rule="evenodd"/><text fill="#000000" fill-opacity="0" font-family="Arial,Arial_MSFontService,sans-serif" font-size="103.258" x="102.079" y="755.214">S</text><g filter="url(#fx1)" transform="translate(55 575)"><g><path d="M16.049 112.173 8.41083 93.97 44.5366 78.8112C40.6365 77.758 36.7712 75.8394 32.9407 73.0553 29.1102 70.2712 25.9611 65.9388 23.4933 60.0578 20.5164 52.9634 20.3185 46.6377 22.8997 41.0809 25.4809 35.5241 30.8788 31.0222 39.0934 27.5753L83.5505 8.92053 91.3356 27.4735 49.1888 45.1588C46.7618 46.1772 44.7567 47.4165 43.1738 48.8767 41.5908 50.3369 40.5992 52.0292 40.1991 53.9536 39.799 55.8781 40.118 58.0771 41.156 60.5508 42.7032 64.2381 44.8935 67.038 47.727 68.9504 50.5605 70.8629 53.6254 72.2802 56.9217 73.2025L102.499 54.0778 110.284 72.6307Z" stroke="#FF0000" stroke-width="3" stroke-linejoin="round" stroke-miterlimit="10" fill="#FF0000" fill-rule="evenodd"/></g></g><path d="M71.049 683.173 63.4108 664.97 99.5366 649.811C95.6365 648.758 91.7712 646.839 87.9407 644.055 84.1102 641.271 80.9611 636.939 78.4933 631.058 75.5164 623.963 75.3185 617.638 77.8997 612.081 80.4809 606.524 85.8788 602.022 94.0934 598.575L138.551 579.921 146.336 598.474 104.189 616.159C101.762 617.177 99.7567 618.417 98.1738 619.877 96.5908 621.337 95.5992 623.029 95.1991 624.954 94.799 626.878 95.118 629.077 96.156 631.551 97.7032 635.238 99.8935 638.038 102.727 639.95 105.561 641.863 108.625 643.28 111.922 644.203L157.499 625.078 165.284 643.631Z" stroke="#FF0000" stroke-width="3" stroke-linejoin="round" stroke-miterlimit="10" fill="#FF0000" fill-rule="evenodd"/><text fill="#000000" fill-opacity="0" font-family="Arial,Arial_MSFontService,sans-serif" font-size="103.252" x="63.4108" y="670.266">h</text><g filter="url(#fx2)" transform="translate(46 496)"><g><path d="M47.7634 33.3817C49.4556 43.8758 51.5928 51.0726 54.175 54.9723 56.7572 58.872 60.1987 60.4856 64.4995 59.8131 67.6001 59.3282 69.7499 58.0059 70.9491 55.8459 72.1483 53.686 72.5094 51.0807 72.0324 48.0302 71.4459 44.2795 69.9292 40.9689 67.4823 38.0983 65.0354 35.2277 62.4131 33.0377 59.6155 31.5284ZM9.13293 51.718C8.40568 47.0671 8.12856 42.7558 8.30157 38.7839 8.47457 34.812 9.29034 31.2647 10.7488 28.142 12.2074 25.0194 14.4532 22.4268 17.4864 20.3643 20.5196 18.3018 24.4866 16.8874 29.3875 16.1211L78.5213 8.43802 81.4303 27.0414 71.9974 29.1311C76.0329 31.6765 79.2839 34.8568 81.7504 38.6721 84.217 42.4874 85.8686 47.0706 86.7054 52.4215 87.3544 56.5723 87.1603 60.5731 86.1231 64.424 85.0858 68.2748 83.1284 71.5652 80.2508 74.295 77.3732 77.0247 73.509 78.7689 68.6581 79.5274 61.9069 80.5831 56.5018 79.3534 52.4428 75.8384 48.3837 72.3233 45.1727 67.0234 42.8097 59.9387 40.4467 52.854 38.4105 44.5014 36.7012 34.881L32.8006 35.4909C28.0497 36.2338 24.977 37.8798 23.5825 40.4289 22.188 42.978 21.7723 46.0529 22.3353 49.6535 22.9531 53.6042 24.399 56.7082 26.6732 58.9654 28.9473 61.2226 32.1848 62.0228 36.3855 61.3659L39.2945 79.9692C33.0434 80.9467 27.8794 80.3582 23.8026 78.2035 19.7258 76.0489 16.5099 72.6837 14.155 68.1081 11.8001 63.5325 10.1261 58.0691 9.13293 51.718Z" stroke="#FF0000" stroke-width="3" stroke-linejoin="round" stroke-miterlimit="10" fill="#FF0000" fill-rule="evenodd"/></g></g><path d="M93.7634 525.382C95.4556 535.876 97.5928 543.073 100.175 546.972 102.757 550.872 106.199 552.486 110.5 551.813 113.6 551.328 115.75 550.006 116.949 547.846 118.148 545.686 118.509 543.081 118.032 540.03 117.446 536.279 115.929 532.969 113.482 530.098 111.035 527.228 108.413 525.038 105.616 523.528ZM55.1329 543.718C54.4057 539.067 54.1286 534.756 54.3016 530.784 54.4746 526.812 55.2903 523.265 56.7488 520.142 58.2074 517.019 60.4532 514.427 63.4864 512.364 66.5195 510.302 70.4866 508.887 75.3875 508.121L124.521 500.438 127.43 519.041 117.997 521.131C122.033 523.676 125.284 526.857 127.75 530.672 130.217 534.487 131.869 539.071 132.705 544.422 133.354 548.572 133.16 552.573 132.123 556.424 131.086 560.275 129.128 563.565 126.251 566.295 123.373 569.025 119.509 570.769 114.658 571.527 107.907 572.583 102.502 571.353 98.4428 567.838 94.3837 564.323 91.1727 559.023 88.8097 551.939 86.4467 544.854 84.4105 536.501 82.7012 526.881L78.8006 527.491C74.0497 528.234 70.977 529.88 69.5825 532.429 68.188 534.978 67.7723 538.053 68.3353 541.654 68.9531 545.604 70.399 548.708 72.6732 550.965 74.9473 553.223 78.1848 554.023 82.3855 553.366L85.2945 571.969C79.0434 572.947 73.8794 572.358 69.8026 570.203 65.7258 568.049 62.5099 564.684 60.155 560.108 57.8001 555.532 56.1261 550.069 55.1329 543.718Z" stroke="#FF0000" stroke-width="3" stroke-linejoin="round" stroke-miterlimit="10" fill="#FF0000" fill-rule="evenodd"/><text fill="#000000" fill-opacity="0" font-family="Arial,Arial_MSFontService,sans-serif" font-size="71.9888" x="54.2517" y="563.428">a</text><g filter="url(#fx3)" transform="translate(39 357)"><g><path d="M14.2237 76.3024C15.3531 68.9479 18.5332 63.6623 23.7641 60.4456 25.0718 59.6414 26.4818 58.9786 27.9942 58.4571L29.8394 57.925 27.817 55.0932C25.8665 52.1004 24.2168 48.7432 22.8679 45.0218 21.0694 40.0599 20.6464 34.4771 21.5991 28.2734 22.7207 20.9689 25.9008 15.6833 31.1394 12.4166 36.378 9.14984 43.2498 8.16948 51.755 9.47554L99.4088 16.7933 96.3549 36.6803 51.2527 29.7544C48.6011 29.3472 46.2189 29.3527 44.1063 29.7708 41.9937 30.1889 40.2623 31.1265 38.9119 32.5835 37.5616 34.0404 36.6866 36.0697 36.2871 38.6712 35.6956 42.5236 36.0371 45.9687 37.3117 49.0066 38.2677 51.285 39.4878 53.4383 40.9718 55.4666L42.4577 57.3441 44.3681 57.5796 92.0219 64.8974 88.968 84.7844 43.8658 77.8584C41.2142 77.4512 38.8321 77.4567 36.7195 77.8749 34.6068 78.293 32.8754 79.2305 31.525 80.6875 30.1747 82.1445 29.2997 84.1738 28.9002 86.7753 28.3087 90.6276 28.7272 94.0718 30.1558 97.1077 31.5843 100.144 33.4631 102.916 35.792 105.424L84.6465 112.926 81.5927 132.813 8.34841 121.566 11.287 102.429 22.3013 103.737C19.5181 100.851 17.2379 97.1084 15.4606 92.5083 13.6834 87.9081 13.271 82.5061 14.2237 76.3024Z" stroke="#FF0000" stroke-width="3" stroke-linejoin="round" stroke-miterlimit="10" fill="#FF0000" fill-rule="evenodd"/></g></g><path d="M53.2237 429.302C54.3531 421.948 57.5332 416.662 62.7641 413.446 64.0718 412.641 65.4818 411.979 66.9942 411.457L68.8394 410.925 66.817 408.093C64.8665 405.1 63.2168 401.743 61.8679 398.022 60.0694 393.06 59.6464 387.477 60.5991 381.273 61.7207 373.969 64.9008 368.683 70.1394 365.417 75.378 362.15 82.2498 361.169 90.755 362.476L138.409 369.793 135.355 389.68 90.2527 382.754C87.6011 382.347 85.2189 382.353 83.1063 382.771 80.9937 383.189 79.2623 384.126 77.9119 385.583 76.5616 387.04 75.6866 389.07 75.2871 391.671 74.6956 395.524 75.0371 398.969 76.3117 402.007 77.2677 404.285 78.4878 406.438 79.9718 408.467L81.4577 410.344 83.3681 410.58 131.022 417.897 127.968 437.784 82.8658 430.858C80.2142 430.451 77.8321 430.457 75.7195 430.875 73.6068 431.293 71.8754 432.231 70.525 433.688 69.1747 435.145 68.2997 437.174 67.9002 439.775 67.3087 443.628 67.7272 447.072 69.1558 450.108 70.5843 453.144 72.4631 455.916 74.792 458.424L123.647 465.926 120.593 485.813 47.3484 474.566 50.287 455.429 61.3013 456.737C58.5181 453.851 56.2379 450.108 54.4606 445.508 52.6834 440.908 52.271 435.506 53.2237 429.302Z" stroke="#FF0000" stroke-width="3" stroke-linejoin="round" stroke-miterlimit="10" fill="#FF0000" fill-rule="evenodd"/><text fill="#000000" fill-opacity="0" font-family="Arial,Arial_MSFontService,sans-serif" font-size="123.897" x="47.3484" y="470.326">m</text><g filter="url(#fx4)" transform="translate(47 295)"><g><path d="M33.248 36.4534 41.0811 17.9206 109.338 46.77 101.504 65.3027ZM10.1845 15.7424C11.623 12.3389 13.5725 10.0993 16.0329 9.02353 18.4933 7.9478 21.029 7.96169 23.6399 9.06522 26.2042 10.149 27.9695 11.953 28.9359 14.4771 29.9023 17.0012 29.6662 19.965 28.2277 23.3685 26.7892 26.772 24.828 29.0067 22.3443 30.0726 19.8606 31.1385 17.3366 31.1295 14.7723 30.0457 12.1614 28.9422 10.3844 27.1333 9.44131 24.619 8.49823 22.1048 8.74596 19.1459 10.1845 15.7424Z" stroke="#FF0000" stroke-width="3" stroke-linejoin="round" stroke-miterlimit="10" fill="#FF0000" fill-rule="evenodd"/></g></g><path d="M80.248 327.453 88.0811 308.921 156.338 337.77 148.504 356.303ZM57.1845 306.742C58.623 303.339 60.5725 301.099 63.0329 300.024 65.4933 298.948 68.029 298.962 70.6399 300.065 73.2042 301.149 74.9695 302.953 75.9359 305.477 76.9023 308.001 76.6662 310.965 75.2277 314.369 73.7892 317.772 71.828 320.007 69.3443 321.073 66.8606 322.138 64.3365 322.13 61.7723 321.046 59.1614 319.942 57.3844 318.133 56.4413 315.619 55.4982 313.105 55.746 310.146 57.1845 306.742Z" stroke="#FF0000" stroke-width="3" stroke-linejoin="round" stroke-miterlimit="10" fill="#FF0000" fill-rule="evenodd"/><text fill="#000000" fill-opacity="0" font-family="Arial,Arial_MSFontService,sans-serif" font-size="57.0757" x="55.8811" y="349.168">i</text><g filter="url(#fx5)" transform="translate(92 186)"><g><path d="M34.8564 56.9577C39.3374 51.0177 44.6432 47.8714 50.7739 47.519 52.3066 47.4309 53.8624 47.5158 55.4412 47.7736L57.3182 48.1799 56.8799 44.7277C56.5814 41.1679 56.7204 37.4299 57.297 33.5138 58.0657 28.2923 60.34 23.1762 64.1199 18.1655 68.5704 12.2659 73.8762 9.11964 80.0374 8.72683 86.1985 8.33401 92.7139 10.7286 99.5833 15.9107L138.072 44.9455 125.956 61.0079 89.5272 33.5277C87.3856 31.9121 85.2856 30.7876 83.2272 30.1543 81.1689 29.5209 79.1999 29.5255 77.3202 30.1682 75.4405 30.8108 73.7082 32.1828 72.123 34.284 69.7759 37.3955 68.4433 40.5907 68.1254 43.8698 67.887 46.3291 67.9404 48.8035 68.2855 51.2929L68.7037 53.6504 70.2741 54.7635 108.763 83.7983 96.6463 99.8607 60.2181 72.3805C58.0764 70.7649 55.9764 69.6404 53.9181 69.007 51.8597 68.3736 49.8907 68.3783 48.011 69.0209 46.1314 69.6636 44.399 71.0355 42.8139 73.1368 40.4667 76.2483 39.2024 79.4791 39.021 82.8295 38.8395 86.1798 39.1795 89.5113 40.0409 92.8241L79.4998 122.591 67.3829 138.653 8.2248 94.0261 19.8845 78.5699 28.9626 84.9425C27.88 81.0825 27.6467 76.706 28.2627 71.8131 28.8787 66.9202 31.0766 61.9684 34.8564 56.9577Z" stroke="#FF0000" stroke-width="3" stroke-linejoin="round" stroke-miterlimit="10" fill="#FF0000" fill-rule="evenodd"/></g></g><path d="M126.856 238.958C131.337 233.018 136.643 229.871 142.774 229.519 144.307 229.431 145.862 229.516 147.441 229.774L149.318 230.18 148.88 226.728C148.581 223.168 148.72 219.43 149.297 215.514 150.066 210.292 152.34 205.176 156.12 200.166 160.57 194.266 165.876 191.12 172.037 190.727 178.199 190.334 184.714 192.729 191.583 197.911L230.072 226.946 217.956 243.008 181.527 215.528C179.386 213.912 177.286 212.788 175.227 212.154 173.169 211.521 171.2 211.526 169.32 212.168 167.441 212.811 165.708 214.183 164.123 216.284 161.776 219.395 160.443 222.591 160.125 225.87 159.887 228.329 159.94 230.803 160.286 233.293L160.704 235.65 162.274 236.763 200.763 265.798 188.646 281.861 152.218 254.38C150.076 252.765 147.976 251.64 145.918 251.007 143.86 250.374 141.891 250.378 140.011 251.021 138.131 251.664 136.399 253.036 134.814 255.137 132.467 258.248 131.202 261.479 131.021 264.829 130.84 268.18 131.179 271.511 132.041 274.824L171.5 304.591 159.383 320.653 100.225 276.026 111.884 260.57 120.963 266.943C119.88 263.082 119.647 258.706 120.263 253.813 120.879 248.92 123.077 243.968 126.856 238.958Z" stroke="#FF0000" stroke-width="3" stroke-linejoin="round" stroke-miterlimit="10" fill="#FF0000" fill-rule="evenodd"/><text fill="#000000" fill-opacity="0" font-family="Arial,Arial_MSFontService,sans-serif" font-size="129.968" x="100.225" y="304.407">m</text><g filter="url(#fx6)" transform="translate(221 75)"><g><path d="M34.7917 15.8578C41.7705 11.9519 48.8708 9.55864 56.0926 8.67802 63.3144 7.79741 70.0747 8.6832 76.3735 11.3354 82.6723 13.9876 87.9266 18.6601 92.1364 25.3527L73.0552 36.0321C70.5423 32.6821 67.6797 30.3399 64.4676 29.0054 61.2555 27.6708 57.8581 27.2231 54.2755 27.6621 50.6929 28.1011 47.0906 29.3341 43.4687 31.3612 37.6383 34.6244 33.7364 38.6643 31.7629 43.4812 29.7894 48.2981 29.2758 53.4434 30.2222 58.9172 31.1687 64.3911 33.1622 69.8444 36.2028 75.2773 39.2188 80.6659 42.8183 85.2059 47.0014 88.8972 51.1846 92.5885 55.8327 94.8305 60.9457 95.6232 66.0587 96.4158 71.5304 95.1806 77.3608 91.9174 83.5003 88.4813 87.4642 84.1891 89.2523 79.041 91.0404 73.8929 90.5679 68.2553 87.8348 62.1283L106.916 51.4489C110.465 59.0335 111.986 66.2595 111.479 73.1267 110.972 79.994 108.571 86.3265 104.275 92.1241 99.9789 97.9217 93.8999 103.021 86.0378 107.421 77.0272 112.464 68.2187 114.914 59.6122 114.772 51.0056 114.629 43.048 112.122 35.7393 107.251 28.4306 102.38 22.1805 95.3063 16.9892 86.0308 11.7978 76.7552 9.0248 67.7068 8.6701 58.8855 8.31541 50.0642 10.3277 41.9484 14.707 34.5379 19.0863 27.1275 25.7812 20.9008 34.7917 15.8578Z" stroke="#FF0000" stroke-width="3" stroke-linejoin="round" stroke-miterlimit="10" fill="#FF0000" fill-rule="evenodd"/></g></g><path d="M255.792 86.8578C262.771 82.9519 269.871 80.5586 277.093 79.678 284.314 78.7974 291.075 79.6832 297.374 82.3354 303.672 84.9876 308.927 89.6601 313.136 96.3527L294.055 107.032C291.542 103.682 288.68 101.34 285.468 100.005 282.255 98.6708 278.858 98.2231 275.276 98.6621 271.693 99.1011 268.091 100.334 264.469 102.361 258.638 105.624 254.736 109.664 252.763 114.481 250.789 119.298 250.276 124.443 251.222 129.917 252.169 135.391 254.162 140.844 257.203 146.277 260.219 151.666 263.818 156.206 268.001 159.897 272.185 163.589 276.833 165.831 281.946 166.623 287.059 167.416 292.53 166.181 298.361 162.917 304.5 159.481 308.464 155.189 310.252 150.041 312.04 144.893 311.568 139.255 308.835 133.128L327.916 122.449C331.465 130.034 332.986 137.259 332.479 144.127 331.972 150.994 329.571 157.326 325.275 163.124 320.979 168.922 314.9 174.021 307.038 178.421 298.027 183.464 289.219 185.914 280.612 185.772 272.006 185.629 264.048 183.122 256.739 178.251 249.431 173.38 243.181 166.306 237.989 157.031 232.798 147.755 230.025 138.707 229.67 129.885 229.315 121.064 231.328 112.948 235.707 105.538 240.086 98.1275 246.781 91.9008 255.792 86.8578Z" stroke="#FF0000" stroke-width="3" stroke-linejoin="round" stroke-miterlimit="10" fill="#FF0000" fill-rule="evenodd"/><text fill="#000000" fill-opacity="0" font-family="Arial,Arial_MSFontService,sans-serif" font-size="106.429" x="229.63" y="172.474">C</text><g filter="url(#fx7)" transform="translate(337 65)"><g><path d="M56.5291 46.8893C46.2477 49.5874 39.2909 52.41 35.659 55.3569 32.027 58.3038 30.7534 61.8851 31.8383 66.1007 32.6205 69.1399 34.1444 71.152 36.4101 72.1369 38.6758 73.1218 41.3037 73.2295 44.2939 72.46 47.9704 71.5139 51.119 69.6844 53.7397 66.9716 56.3605 64.2588 58.2869 61.4372 59.5189 58.5069ZM34.5464 10.2111C39.1052 9.03788 43.3696 8.34551 47.3396 8.13396 51.3097 7.92241 54.9192 8.39164 58.1681 9.54163 61.4171 10.6916 64.2145 12.6765 66.5604 15.4962 68.9063 18.3159 70.6974 22.1277 71.9336 26.9316L84.3278 75.0933 66.0925 79.786 63.1012 70.5992C60.9576 74.8617 58.1063 78.4048 54.5471 81.2284 50.9879 84.0521 46.5858 86.1388 41.3408 87.4886 37.2721 88.5356 33.2713 88.729 29.3382 88.0686 25.4051 87.4083 21.9411 85.7779 18.946 83.1775 15.951 80.5771 13.8417 76.8995 12.618 72.1446 10.915 65.527 11.6167 60.0283 14.7232 55.6487 17.8296 51.269 22.7945 47.561 29.6178 44.5245 36.441 41.4881 44.5578 38.6545 53.9681 36.0237L52.9842 32.2002C51.7857 27.5433 49.8506 24.6441 47.1786 23.5024 44.5067 22.3607 41.4061 22.2439 37.8767 23.1522 34.0042 24.1488 31.0544 25.8879 29.0275 28.3695 27.0005 30.8511 26.5169 34.1507 27.5766 38.2683L9.34131 42.9611C7.76443 36.8336 7.85135 31.6369 9.60202 27.371 11.3527 23.1051 14.3914 19.5791 18.7181 16.7932 23.0448 14.0072 28.3209 11.8132 34.5464 10.2111Z" stroke="#FF0000" stroke-width="3" stroke-linejoin="round" stroke-miterlimit="10" fill="#FF0000" fill-rule="evenodd"/></g></g><path d="M393.529 107.889C383.248 110.587 376.291 113.41 372.659 116.357 369.027 119.304 367.753 122.885 368.838 127.101 369.62 130.14 371.144 132.152 373.41 133.137 375.676 134.122 378.304 134.23 381.294 133.46 384.97 132.514 388.119 130.684 390.74 127.972 393.361 125.259 395.287 122.437 396.519 119.507ZM371.546 71.2111C376.105 70.0379 380.37 69.3455 384.34 69.134 388.31 68.9224 391.919 69.3916 395.168 70.5416 398.417 71.6916 401.215 73.6765 403.56 76.4962 405.906 79.3159 407.697 83.1277 408.934 87.9316L421.328 136.093 403.093 140.786 400.101 131.599C397.958 135.862 395.106 139.405 391.547 142.228 387.988 145.052 383.586 147.139 378.341 148.489 374.272 149.536 370.271 149.729 366.338 149.069 362.405 148.408 358.941 146.778 355.946 144.178 352.951 141.577 350.842 137.899 349.618 133.145 347.915 126.527 348.617 121.028 351.723 116.649 354.83 112.269 359.794 108.561 366.618 105.525 373.441 102.488 381.558 99.6545 390.968 97.0237L389.984 93.2002C388.786 88.5433 386.851 85.6441 384.179 84.5023 381.507 83.3607 378.406 83.2439 374.877 84.1522 371.004 85.1488 368.054 86.8879 366.027 89.3695 364.001 91.8511 363.517 95.1507 364.577 99.2683L346.341 103.961C344.764 97.8336 344.851 92.6369 346.602 88.371 348.353 84.1051 351.391 80.5791 355.718 77.7932 360.045 75.0072 365.321 72.8132 371.546 71.2111Z" stroke="#FF0000" stroke-width="3" stroke-linejoin="round" stroke-miterlimit="10" fill="#FF0000" fill-rule="evenodd"/><text fill="#000000" fill-opacity="0" font-family="Arial,Arial_MSFontService,sans-serif" font-size="80.3671" x="345.22" y="139.406">a</text><g filter="url(#fx8)" transform="translate(424 26)"><g><path d="M44.207 50.951C39.2477 51.0605 35.4443 53.0684 32.7966 56.9747 30.1489 60.881 28.9055 66.4776 29.0665 73.7646 29.243 81.7601 30.6769 87.6521 33.368 91.4404 36.059 95.2288 39.6817 97.0727 44.2361 96.9721 48.4869 96.8782 52.1295 95.608 55.1638 93.1614 58.1981 90.7148 60.4897 87.8796 62.0387 84.6558L61.5609 63.0224C59.9184 59.7172 57.6528 56.856 54.7642 54.439 51.8756 52.022 48.3565 50.8593 44.207 50.951ZM60.3555 8.44565 80.4707 8.00138 82.7272 110.172 63.447 110.597 62.379 100.065C59.828 103.766 56.6278 106.723 52.7782 108.934 48.9286 111.146 44.2206 112.313 38.6541 112.436 33.0876 112.559 28.0597 111.278 23.5703 108.592 19.081 105.907 15.4951 101.72 12.8127 96.0333 10.1304 90.3462 8.69141 83.0747 8.49582 74.219 8.30692 65.6668 9.52997 58.5771 12.165 52.9497 14.8 47.3223 18.4404 43.0903 23.0862 40.2537 27.7321 37.4172 32.9901 35.934 38.8602 35.8044 44.0218 35.6904 48.4731 36.6553 52.2142 38.6991 55.9553 40.7429 58.9518 43.4613 61.2038 46.8543Z" stroke="#FF0000" stroke-width="3" stroke-linejoin="round" stroke-miterlimit="10" fill="#FF0000" fill-rule="evenodd"/></g></g><path d="M468.207 72.951C463.248 73.0605 459.444 75.0684 456.797 78.9747 454.149 82.881 452.906 88.4776 453.066 95.7646 453.243 103.76 454.677 109.652 457.368 113.44 460.059 117.229 463.682 119.073 468.236 118.972 472.487 118.878 476.129 117.608 479.164 115.161 482.198 112.715 484.49 109.88 486.039 106.656L485.561 85.0224C483.918 81.7172 481.653 78.856 478.764 76.439 475.876 74.022 472.357 72.8593 468.207 72.951ZM484.355 30.4456 504.471 30.0014 506.727 132.172 487.447 132.597 486.379 122.065C483.828 125.766 480.628 128.723 476.778 130.934 472.929 133.146 468.221 134.313 462.654 134.436 457.088 134.559 452.06 133.278 447.57 130.592 443.081 127.907 439.495 123.72 436.813 118.033 434.13 112.346 432.691 105.075 432.496 96.219 432.307 87.6668 433.53 80.5771 436.165 74.9497 438.8 69.3223 442.44 65.0903 447.086 62.2537 451.732 59.4172 456.99 57.934 462.86 57.8044 468.022 57.6904 472.473 58.6553 476.214 60.6991 479.955 62.7429 482.952 65.4613 485.204 68.8543Z" stroke="#FF0000" stroke-width="3" stroke-linejoin="round" stroke-miterlimit="10" fill="#FF0000" fill-rule="evenodd"/><text fill="#000000" fill-opacity="0" font-family="Arial,Arial_MSFontService,sans-serif" font-size="104.443" x="432.477" y="121.389">d</text><g filter="url(#fx9)" transform="translate(517 61)"><g><path d="M51.0808 23.813C46.5244 22.8517 42.5258 23.3531 39.0852 25.3172 35.6445 27.2812 33.2584 30.6835 31.9268 35.5239L63.3512 42.154C64.2685 37.0709 63.567 32.9785 61.247 29.8765 58.9269 26.7746 55.5382 24.7535 51.0808 23.813ZM53.9648 10.1437C64.7616 12.4217 72.6263 17.3789 77.5591 25.0153 82.4919 32.6518 83.7253 42.3141 81.2593 54.0023 81.1339 54.5966 80.9393 55.3962 80.6756 56.4011 80.4119 57.4059 80.173 58.1703 79.959 58.6942L29.0707 47.9575C28.4487 51.3957 28.4062 54.7234 28.9431 57.9406 29.48 61.1577 30.8207 63.9366 32.9651 66.2772 35.1096 68.6178 38.2372 70.2218 42.3478 71.0891 46.6071 71.9877 50.2204 71.7801 53.1876 70.4662 56.1548 69.1523 58.0498 66.6682 58.8726 63.0137L78.2621 67.1045C76.8233 72.6983 74.2829 77.0768 70.641 80.2399 66.9991 83.4031 62.5183 85.3935 57.1985 86.211 51.8788 87.0285 45.9255 86.7424 39.3384 85.3527 31.2657 83.6494 24.7966 80.7197 19.9314 76.5635 15.0662 72.4073 11.8176 67.2084 10.1859 60.9668 8.55408 54.7251 8.57413 47.6422 10.246 39.718 11.8656 32.0414 14.635 25.7196 18.554 20.7526 22.4731 15.7856 27.4107 12.3656 33.3669 10.4925 39.3232 8.61946 46.1892 8.5032 53.9648 10.1437Z" stroke="#FF0000" stroke-width="3" stroke-linejoin="round" stroke-miterlimit="10" fill="#FF0000" fill-rule="evenodd"/></g></g><path d="M568.081 80.813C563.524 79.8517 559.526 80.3531 556.085 82.3172 552.645 84.2812 550.258 87.6835 548.927 92.5239L580.351 99.154C581.268 94.0709 580.567 89.9785 578.247 86.8765 575.927 83.7746 572.538 81.7534 568.081 80.813ZM570.965 67.1437C581.762 69.4217 589.626 74.3789 594.559 82.0153 599.492 89.6518 600.725 99.3141 598.259 111.002 598.134 111.597 597.939 112.396 597.676 113.401 597.412 114.406 597.173 115.17 596.959 115.694L546.071 104.958C545.449 108.396 545.406 111.723 545.943 114.941 546.48 118.158 547.821 120.937 549.965 123.277 552.11 125.618 555.237 127.222 559.348 128.089 563.607 128.988 567.22 128.78 570.188 127.466 573.155 126.152 575.05 123.668 575.873 120.014L595.262 124.105C593.823 129.698 591.283 134.077 587.641 137.24 583.999 140.403 579.518 142.393 574.199 143.211 568.879 144.029 562.925 143.742 556.338 142.353 548.266 140.649 541.797 137.72 536.931 133.563 532.066 129.407 528.818 124.208 527.186 117.967 525.554 111.725 525.574 104.642 527.246 96.718 528.866 89.0414 531.635 82.7196 535.554 77.7526 539.473 72.7856 544.411 69.3656 550.367 67.4925 556.323 65.6195 563.189 65.5032 570.965 67.1437Z" stroke="#FF0000" stroke-width="3" stroke-linejoin="round" stroke-miterlimit="10" fill="#FF0000" fill-rule="evenodd"/><text fill="#000000" fill-opacity="0" font-family="Arial,Arial_MSFontService,sans-serif" font-size="77.6704" x="525.977" y="133.956">e</text><g filter="url(#fx10)" transform="translate(604 66)"><g><path d="M37.1368 8.59291 55.7178 16.3108 49.0192 32.4377 63.9541 38.6412 58.0128 52.945 43.0779 46.7416 30.9622 75.9102C29.4672 79.5096 28.8629 82.3827 29.1495 84.5297 29.4362 86.6767 31.3558 88.4881 34.9083 89.9637L41.4993 92.7014 35.5289 107.075 28.3068 104.076C21.3886 101.202 16.3693 98.1442 13.2489 94.9024 10.1285 91.6605 8.54361 87.9877 8.49429 83.8839 8.44495 79.7801 9.58527 74.9235 11.9152 69.3142L24.4969 39.0237 13.1379 34.3055 19.0793 20.0017 30.4382 24.7198Z" stroke="#FF0000" stroke-width="3" stroke-linejoin="round" stroke-miterlimit="10" fill="#FF0000" fill-rule="evenodd"/></g></g><path d="M641.137 70.5929 659.718 78.3108 653.019 94.4377 667.954 100.641 662.013 114.945 647.078 108.742 634.962 137.91C633.467 141.51 632.863 144.383 633.15 146.53 633.436 148.677 635.356 150.488 638.908 151.964L645.499 154.701 639.529 169.075 632.307 166.076C625.389 163.202 620.369 160.144 617.249 156.902 614.128 153.661 612.544 149.988 612.494 145.884 612.445 141.78 613.585 136.924 615.915 131.314L628.497 101.024 617.138 96.3055 623.079 82.0017 634.438 86.7198Z" stroke="#FF0000" stroke-width="3" stroke-linejoin="round" stroke-miterlimit="10" fill="#FF0000" fill-rule="evenodd"/><text fill="#000000" fill-opacity="0" font-family="Arial,Arial_MSFontService,sans-serif" font-size="98.4824" x="612.493" y="156.765">t</text><g filter="url(#fx11)" transform="translate(659 121)"><g><path d="M97.0661 31.6986 61.0203 55.1929 81.6964 71.8863ZM101.641 8.26473 119.068 22.3348 83.5215 124.981 66.2128 111.006 74.6595 88.9416 45.9493 65.7617 25.9832 78.5258 8.85168 64.6942Z" stroke="#FF0000" stroke-width="3" stroke-linejoin="round" stroke-miterlimit="10" fill="#FF0000" fill-rule="evenodd"/></g></g><path d="M756.066 148.699 720.02 172.193 740.696 188.886ZM760.641 125.265 778.068 139.335 742.522 241.981 725.213 228.006 733.659 205.942 704.949 182.762 684.983 195.526 667.852 181.694Z" stroke="#FF0000" stroke-width="3" stroke-linejoin="round" stroke-miterlimit="10" fill="#FF0000" fill-rule="evenodd"/><text fill="#000000" fill-opacity="0" font-family="Arial,Arial_MSFontService,sans-serif" font-size="116.716" x="667.852" y="227.391">A</text><g filter="url(#fx12)" transform="translate(747 208)"><g><path d="M78.4622 24.6907C82.2661 29.6831 84.8766 34.8213 86.2936 40.1051 87.7106 45.389 87.6834 50.4688 86.212 55.3443 84.7407 60.2199 81.5242 64.5798 76.5624 68.424L64.7365 52.9033C67.6947 50.522 69.3334 47.6825 69.6525 44.3849 69.9717 41.0872 68.7968 37.687 66.1279 34.1843 62.6 29.5542 58.4558 27.4142 53.6953 27.7643 48.9348 28.1143 43.6558 30.498 37.8582 34.9155 34.1138 37.7685 31.2682 40.6526 29.3214 43.5678 27.3745 46.483 26.4504 49.4462 26.5493 52.4572 26.6481 55.4682 27.8632 58.5037 30.1947 61.5635 32.9249 65.1468 36.0563 67.2312 39.5889 67.8168 43.1214 68.4024 46.71 67.3704 50.3546 64.7206L62.1805 80.2414C56.9753 84.0166 51.7241 86.061 46.4268 86.3746 41.1294 86.6882 36.0257 85.502 31.1155 82.8161 26.2054 80.1302 21.7563 76.1702 17.7683 70.9363 13.5963 65.4608 10.8544 59.6909 9.54291 53.6267 8.23132 47.5625 8.79291 41.5347 11.2277 35.5432 13.6624 29.5518 18.3825 23.8871 25.3879 18.5493 32.3934 13.2115 39.1017 10.0728 45.513 9.13319 51.9242 8.19357 57.9219 9.11224 63.5059 11.8892 69.09 14.6662 74.0754 18.9333 78.4622 24.6907Z" stroke="#FF0000" stroke-width="3" stroke-linejoin="round" stroke-miterlimit="10" fill="#FF0000" fill-rule="evenodd"/></g></g><path d="M825.462 228.691C829.266 233.683 831.877 238.821 833.294 244.105 834.711 249.389 834.683 254.469 833.212 259.344 831.741 264.22 828.524 268.58 823.562 272.424L811.736 256.903C814.695 254.522 816.333 251.683 816.653 248.385 816.972 245.087 815.797 241.687 813.128 238.184 809.6 233.554 805.456 231.414 800.695 231.764 795.935 232.114 790.656 234.498 784.858 238.916 781.114 241.768 778.268 244.653 776.321 247.568 774.375 250.483 773.45 253.446 773.549 256.457 773.648 259.468 774.863 262.504 777.195 265.564 779.925 269.147 783.056 271.231 786.589 271.817 790.121 272.402 793.71 271.37 797.355 268.721L809.181 284.241C803.975 288.017 798.724 290.061 793.427 290.375 788.129 290.688 783.026 289.502 778.116 286.816 773.205 284.13 768.756 280.17 764.768 274.936 760.596 269.461 757.854 263.691 756.543 257.627 755.231 251.562 755.793 245.535 758.228 239.543 760.662 233.552 765.383 227.887 772.388 222.549 779.393 217.212 786.102 214.073 792.513 213.133 798.924 212.194 804.922 213.112 810.506 215.889 816.09 218.666 821.075 222.933 825.462 228.691Z" stroke="#FF0000" stroke-width="3" stroke-linejoin="round" stroke-miterlimit="10" fill="#FF0000" fill-rule="evenodd"/><text fill="#000000" fill-opacity="0" font-family="Arial,Arial_MSFontService,sans-serif" font-size="77.6469" x="755.854" y="280.718">c</text><g filter="url(#fx13)" transform="translate(788 285)"><g><path d="M53.5324 57.9918C49.1609 48.3027 45.22 41.9127 41.7098 38.8218 38.1995 35.7309 34.4562 35.0711 30.4799 36.8424 27.6132 38.1194 25.8828 39.9569 25.2887 42.3549 24.6946 44.7529 25.0257 47.3621 26.2821 50.1825 27.8268 53.6503 30.1548 56.4505 33.2659 58.5833 36.377 60.716 39.4798 62.146 42.5743 62.8732ZM86.0409 30.2117C87.9564 34.5117 89.3488 38.6015 90.218 42.4809 91.0873 46.3604 91.2253 49.9977 90.632 53.3927 90.0388 56.7877 88.5471 59.8764 86.1571 62.6589 83.7671 65.4413 80.3065 67.8417 75.7753 69.8602L30.3478 90.0964 22.6859 72.8964 31.2468 68.4179C26.687 67.0135 22.7188 64.7916 19.3422 61.752 15.9657 58.7123 13.1755 54.7189 10.9716 49.7715 9.26215 45.9339 8.4057 42.021 8.40228 38.0329 8.39893 34.0448 9.43005 30.3577 11.4958 26.9717 13.5615 23.5856 16.8368 20.8937 21.3218 18.8958 27.5637 16.1153 33.1025 15.8922 37.938 18.2265 42.7736 20.5608 47.2561 24.8393 51.3857 31.0621 55.5153 37.2849 59.6602 44.817 63.8203 53.6583L67.4267 52.0517C71.8192 50.0951 74.356 47.7044 75.0372 44.8797 75.7183 42.0551 75.3174 38.9783 73.8344 35.6492 72.2073 31.9965 70.0016 29.3773 67.2173 27.7916 64.433 26.2059 61.0989 26.2782 57.215 28.0083L49.553 10.8082C55.3326 8.23366 60.4713 7.45454 64.9691 8.47089 69.4669 9.48723 73.4493 11.8968 76.9165 15.6995 80.3837 19.5023 83.4251 24.3397 86.0409 30.2117Z" stroke="#FF0000" stroke-width="3" stroke-linejoin="round" stroke-miterlimit="10" fill="#FF0000" fill-rule="evenodd"/></g></g><path d="M841.532 338.992C837.161 329.303 833.22 322.913 829.71 319.822 826.2 316.731 822.456 316.071 818.48 317.842 815.613 319.119 813.883 320.957 813.289 323.355 812.695 325.753 813.026 328.362 814.282 331.183 815.827 334.65 818.155 337.451 821.266 339.583 824.377 341.716 827.48 343.146 830.574 343.873ZM874.041 311.212C875.956 315.512 877.349 319.601 878.218 323.481 879.087 327.36 879.225 330.998 878.632 334.393 878.039 337.788 876.547 340.876 874.157 343.659 871.767 346.441 868.306 348.842 863.775 350.86L818.348 371.096 810.686 353.896 819.247 349.418C814.687 348.014 810.719 345.792 807.342 342.752 803.966 339.712 801.175 335.719 798.972 330.772 797.262 326.934 796.406 323.021 796.402 319.033 796.399 315.045 797.43 311.358 799.496 307.972 801.561 304.586 804.837 301.894 809.322 299.896 815.564 297.115 821.102 296.892 825.938 299.226 830.774 301.561 835.256 305.839 839.386 312.062 843.515 318.285 847.66 325.817 851.82 334.658L855.427 333.052C859.819 331.095 862.356 328.704 863.037 325.88 863.718 323.055 863.317 319.978 861.834 316.649 860.207 312.997 858.002 310.377 855.217 308.792 852.433 307.206 849.099 307.278 845.215 309.008L837.553 291.808C843.333 289.234 848.471 288.455 852.969 289.471 857.467 290.487 861.449 292.897 864.917 296.7 868.384 300.502 871.425 305.34 874.041 311.212Z" stroke="#FF0000" stroke-width="3" stroke-linejoin="round" stroke-miterlimit="10" fill="#FF0000" fill-rule="evenodd"/><text fill="#000000" fill-opacity="0" font-family="Arial,Arial_MSFontService,sans-serif" font-size="82.057" x="796.402" y="360.839">a</text><g filter="url(#fx14)" transform="translate(817 370)"><g><path d="M70.9692 41.4546C70.1024 36.5705 67.5364 33.119 63.2711 31.1 59.0057 29.0809 53.2847 28.7083 46.1081 29.982 38.2337 31.3796 32.6304 33.6978 29.2983 36.9367 25.9661 40.1756 24.6981 44.0377 25.4942 48.5231 26.2372 52.7095 28.0496 56.1149 30.9316 58.7392 33.8135 61.3636 36.9659 63.1946 40.3887 64.2322L61.6944 60.4508C64.7095 58.3221 67.1904 55.6455 69.1371 52.4212 71.0839 49.1969 71.6946 45.5413 70.9692 41.4546ZM115.445 50.9113 118.96 70.7218 18.3379 88.5803 14.9678 69.5921 25.2131 66.9255C21.1649 64.9708 17.7535 62.2605 14.9793 58.7944 12.205 55.3284 10.3314 50.8543 9.3584 45.3722 8.38544 39.89 8.88251 34.7253 10.8497 29.878 12.8168 25.0307 16.4053 20.8467 21.6152 17.3259 26.8251 13.8052 33.7909 11.2709 42.5125 9.72295 50.9351 8.2281 58.1285 8.35228 64.0927 10.0955 70.0569 11.8387 74.796 14.7889 78.3098 18.9462 81.8237 23.1034 84.0936 28.0727 85.1197 33.8539 86.0219 38.9373 85.7493 43.4839 84.3018 47.4935 82.8542 51.5032 80.6262 54.8803 77.6176 57.6248Z" stroke="#FF0000" stroke-width="3" stroke-linejoin="round" stroke-miterlimit="10" fill="#FF0000" fill-rule="evenodd"/></g></g><path d="M887.969 407.455C887.102 402.571 884.536 399.119 880.271 397.1 876.006 395.081 870.285 394.708 863.108 395.982 855.234 397.38 849.63 399.698 846.298 402.937 842.966 406.176 841.698 410.038 842.494 414.523 843.237 418.71 845.05 422.115 847.932 424.739 850.814 427.364 853.966 429.195 857.389 430.232L878.694 426.451C881.709 424.322 884.19 421.646 886.137 418.421 888.084 415.197 888.695 411.541 887.969 407.455ZM932.445 416.911 935.96 436.722 835.338 454.58 831.968 435.592 842.213 432.926C838.165 430.971 834.754 428.26 831.979 424.794 829.205 421.328 827.331 416.854 826.358 411.372 825.385 405.89 825.883 400.725 827.85 395.878 829.817 391.031 833.405 386.847 838.615 383.326 843.825 379.805 850.791 377.271 859.513 375.723 867.935 374.228 875.129 374.352 881.093 376.095 887.057 377.839 891.796 380.789 895.31 384.946 898.824 389.103 901.094 394.073 902.12 399.854 903.022 404.937 902.749 409.484 901.302 413.494 899.854 417.503 897.626 420.88 894.618 423.625Z" stroke="#FF0000" stroke-width="3" stroke-linejoin="round" stroke-miterlimit="10" fill="#FF0000" fill-rule="evenodd"/><text fill="#000000" fill-opacity="0" font-family="Arial,Arial_MSFontService,sans-serif" font-size="79.8925" x="825.875" y="444.594">d</text><g filter="url(#fx15)" transform="translate(824 465)"><g><path d="M70.8115 46.9014C71.1288 42.2555 70.0754 38.3658 67.6512 35.2323 65.227 32.0987 61.5256 30.2097 56.5469 29.5653L54.3585 61.6069C59.5197 61.8072 63.4746 60.5426 66.2231 57.8131 68.9716 55.0836 70.5011 51.4464 70.8115 46.9014ZM84.7492 47.8534C83.9974 58.8622 80.184 67.3407 73.309 73.2891 66.4341 79.2375 57.0377 81.8047 45.12 80.9907 44.514 80.9493 43.6951 80.868 42.6633 80.7468 41.6315 80.6256 40.8414 80.4956 40.2927 80.3566L43.8366 28.4689C40.3453 28.3319 37.0441 28.7533 33.9331 29.7331 30.8221 30.7129 28.2571 32.4276 26.238 34.8771 24.2189 37.3267 23.0662 40.6472 22.7799 44.8386 22.4833 49.1815 23.1921 52.7306 24.9065 55.4859 26.6209 58.2412 29.3448 59.7717 33.0783 60.0774L31.728 79.8478C25.9883 79.2021 21.2987 77.2963 17.6591 74.1305 14.0195 70.9647 11.4244 66.8048 9.8739 61.6508 8.32336 56.4968 7.77747 50.5616 8.23621 43.8452 8.79834 35.6139 10.7985 28.7999 14.2365 23.4032 17.6746 18.0064 22.3703 14.0654 28.3238 11.5802 34.2773 9.09491 41.2939 8.1282 49.3738 8.68005 57.2011 9.21466 63.847 11.0764 69.3115 14.2654 74.776 17.4544 78.8504 21.8676 81.5349 27.5049 84.2192 33.1422 85.2907 39.925 84.7492 47.8534Z" stroke="#FF0000" stroke-width="3" stroke-linejoin="round" stroke-miterlimit="10" fill="#FF0000" fill-rule="evenodd"/></g></g><path d="M894.812 507.901C895.129 503.256 894.075 499.366 891.651 496.232 889.227 493.099 885.526 491.21 880.547 490.565L878.358 522.607C883.52 522.807 887.475 521.543 890.223 518.813 892.972 516.084 894.501 512.446 894.812 507.901ZM908.749 508.853C907.997 519.862 904.184 528.341 897.309 534.289 890.434 540.237 881.038 542.805 869.12 541.991 868.514 541.949 867.695 541.868 866.663 541.747 865.632 541.626 864.841 541.496 864.293 541.357L867.837 489.469C864.345 489.332 861.044 489.753 857.933 490.733 854.822 491.713 852.257 493.428 850.238 495.877 848.219 498.327 847.066 501.647 846.78 505.839 846.483 510.181 847.192 513.731 848.906 516.486 850.621 519.241 853.345 520.772 857.078 521.077L855.728 540.848C849.988 540.202 845.299 538.296 841.659 535.13 838.02 531.965 835.424 527.805 833.874 522.651 832.323 517.497 831.777 511.562 832.236 504.845 832.798 496.614 834.798 489.8 838.237 484.403 841.675 479.006 846.37 475.065 852.324 472.58 858.277 470.095 865.294 469.128 873.374 469.68 881.201 470.215 887.847 472.076 893.312 475.265 898.776 478.454 902.85 482.868 905.535 488.505 908.219 494.142 909.291 500.925 908.749 508.853Z" stroke="#FF0000" stroke-width="3" stroke-linejoin="round" stroke-miterlimit="10" fill="#FF0000" fill-rule="evenodd"/><text fill="#000000" fill-opacity="0" font-family="Arial,Arial_MSFontService,sans-serif" font-size="72.6081" x="832.079" y="533.062">e</text><g filter="url(#fx16)" transform="translate(780 547)"><g><path d="M105.089 78.5576C102.355 85.4776 98.0803 89.9249 92.2656 91.8997 90.812 92.3934 89.2899 92.7266 87.6995 92.8992L85.7822 93.0082 87.1252 96.2184C88.3624 99.5696 89.2253 103.209 89.7142 107.137 90.3658 112.375 89.5385 117.912 87.2319 123.749 84.5161 130.622 80.2416 135.07 74.4083 137.092 68.5751 139.113 61.6572 138.543 53.6544 135.381L8.81567 117.663 16.2097 98.9509 58.6476 115.72C61.1426 116.706 63.4664 117.23 65.6191 117.291 67.7719 117.352 69.6683 116.823 71.3085 115.702 72.9487 114.581 74.2524 112.797 75.2197 110.349 76.652 106.725 77.084 103.29 76.5159 100.044 76.0898 97.6107 75.3784 95.2402 74.3818 92.933L73.35 90.7724 71.5396 90.1185 26.7009 72.4007 34.0948 53.6885 76.5328 70.4576C79.0278 71.4435 81.3516 71.9671 83.5043 72.0286 85.657 72.0901 87.5535 71.5605 89.1937 70.4397 90.8339 69.319 92.1376 67.5348 93.1049 65.0869 94.5372 61.4621 94.894 58.011 94.1753 54.7337 93.4566 51.4563 92.2404 48.3361 90.5267 45.3731L44.5581 27.2089 51.9521 8.49667 120.87 35.729 113.755 53.7351 103.306 50.0145C105.379 53.446 106.771 57.6017 107.482 62.4817 108.193 67.3617 107.396 72.7203 105.089 78.5576Z" stroke="#FF0000" stroke-width="3" stroke-linejoin="round" stroke-miterlimit="10" fill="#FF0000" fill-rule="evenodd"/></g></g><path d="M885.089 621.558C882.355 628.478 878.08 632.925 872.266 634.9 870.812 635.393 869.29 635.727 867.7 635.899L865.782 636.008 867.125 639.218C868.362 642.57 869.225 646.209 869.714 650.137 870.366 655.375 869.538 660.912 867.232 666.749 864.516 673.622 860.242 678.07 854.408 680.092 848.575 682.113 841.657 681.543 833.654 678.381L788.816 660.663 796.21 641.951 838.648 658.72C841.143 659.706 843.466 660.23 845.619 660.291 847.772 660.352 849.668 659.823 851.309 658.702 852.949 657.581 854.252 655.797 855.22 653.349 856.652 649.725 857.084 646.29 856.516 643.044 856.09 640.611 855.378 638.24 854.382 635.933L853.35 633.772 851.54 633.118 806.701 615.401 814.095 596.688 856.533 613.458C859.028 614.443 861.352 614.967 863.504 615.029 865.657 615.09 867.554 614.56 869.194 613.44 870.834 612.319 872.138 610.535 873.105 608.087 874.537 604.462 874.894 601.011 874.175 597.734 873.457 594.456 872.24 591.336 870.527 588.373L824.558 570.209 831.952 551.497 900.87 578.729 893.755 596.735 883.306 593.014C885.379 596.446 886.771 600.602 887.482 605.482 888.193 610.362 887.396 615.72 885.089 621.558Z" stroke="#FF0000" stroke-width="3" stroke-linejoin="round" stroke-miterlimit="10" fill="#FF0000" fill-rule="evenodd"/><text fill="#000000" fill-opacity="0" font-family="Arial,Arial_MSFontService,sans-serif" font-size="129.778" x="788.816" y="665.052">m</text><g filter="url(#fx17)" transform="translate(735 648)"><g><path d="M107.461 64.1456 94.4603 80.5807 39.8325 61.2807 72.4633 108.389 59.8397 124.348 18.2543 57.4746 14.1739 50.7619C11.2783 46.019 9.48407 41.7601 8.79132 37.9852 8.09863 34.2104 8.45392 30.5385 9.85718 26.9695 11.2604 23.4006 13.6578 19.4724 17.0492 15.1849L22.6545 8.09875 35.4572 18.2259 31.3121 23.4661C29.4594 25.8083 28.3297 28.0931 27.923 30.3207 27.5163 32.5482 27.9831 34.7729 29.3234 36.9948L31.4431 40.8013Z" stroke="#FF0000" stroke-width="3" stroke-linejoin="round" stroke-miterlimit="10" fill="#FF0000" fill-rule="evenodd"/></g></g><path d="M842.461 708.146 829.46 724.581 774.833 705.281 807.463 752.389 794.84 768.348 753.254 701.475 749.174 694.762C746.278 690.019 744.484 685.76 743.791 681.985 743.099 678.21 743.454 674.539 744.857 670.97 746.26 667.401 748.658 663.472 752.049 659.185L757.654 652.099 770.457 662.226 766.312 667.466C764.459 669.808 763.33 672.093 762.923 674.321 762.516 676.548 762.983 678.773 764.323 680.995L766.443 684.801Z" stroke="#FF0000" stroke-width="3" stroke-linejoin="round" stroke-miterlimit="10" fill="#FF0000" fill-rule="evenodd"/><text fill="#000000" fill-opacity="0" font-family="Arial,Arial_MSFontService,sans-serif" font-size="116.25" x="743.448" y="753.817">y</text><g clip-path="url(#clip19)" filter="url(#fx18)" transform="translate(404 654)"><g><path d="M129.661 14.8544 122.825 35.9091 136.497 35.9091ZM123.918 3.995 135.442 3.995 154.387 56.5731 142.942 56.5731 139.192 45.0106 120.208 45.0106 116.34 56.5731 105.012 56.5731ZM24.4497 3.33093C28.0435 3.33093 31.3442 3.87781 34.3521 4.97156 37.3599 6.06531 39.7622 7.73197 41.5591 9.97156 43.356 12.2111 44.2544 15.0627 44.2544 18.5262L33.0044 18.5262C33.0304 16.2867 32.1971 14.6135 30.5044 13.5067 28.8117 12.3999 26.7804 11.8466 24.4106 11.8466 22.0669 11.8466 20.1268 12.2828 18.5903 13.1552 17.0539 14.0275 16.2856 15.3752 16.2856 17.1981 16.2856 18.2398 16.6112 19.1578 17.2622 19.952 17.9132 20.7463 19.1177 21.521 20.8755 22.2762 22.6333 23.0315 25.1789 23.8908 28.5122 24.8544 32.4966 26.0262 35.7648 27.2567 38.3169 28.5458 40.869 29.8348 42.7635 31.5015 44.0005 33.5458 45.2375 35.59 45.856 38.2788 45.856 41.6122 45.856 45.3361 44.9445 48.344 43.1216 50.6356 41.2987 52.9273 38.8182 54.607 35.6802 55.6747 32.5422 56.7424 28.994 57.2762 25.0356 57.2762 21.0513 57.2762 17.464 56.7098 14.2739 55.577 11.0838 54.4442 8.55127 52.6408 6.67627 50.1669 4.80127 47.6929 3.86377 44.4637 3.86377 40.4794L15.1138 40.4794C15.1659 42.5106 15.6346 44.1057 16.52 45.2645 17.4054 46.4234 18.5968 47.2502 20.0942 47.745 21.5916 48.2398 23.3039 48.4872 25.231 48.4872 27.0799 48.4872 28.7075 48.2658 30.1138 47.8231 31.52 47.3804 32.6203 46.6968 33.4146 45.7723 34.2088 44.8479 34.606 43.6695 34.606 42.2372 34.606 40.857 34.2674 39.7177 33.5903 38.8192 32.9132 37.9208 31.7153 37.1005 29.9966 36.3583 28.2778 35.6161 25.869 34.8153 22.77 33.9559 19.1502 32.9143 16.0187 31.7684 13.3755 30.5184 10.7323 29.2684 8.68799 27.6539 7.24268 25.6747 5.79736 23.6955 5.07471 21.1174 5.07471 17.9403 5.07471 14.5288 5.90153 11.7489 7.55518 9.60046 9.20882 7.45203 11.494 5.87 14.4106 4.85437 17.3273 3.83875 20.6737 3.33093 24.4497 3.33093ZM78.3872 3.29187C82.5018 3.29187 86.2908 4.0015 89.7544 5.42078 93.2179 6.84005 96.0304 8.9364 98.1919 11.7098 100.353 14.4833 101.538 17.9012 101.747 21.9637L90.4966 21.9637C90.2101 19.8283 89.5135 18.0575 88.4067 16.6512 87.3 15.245 85.8872 14.1903 84.1685 13.4872 82.4497 12.7841 80.5226 12.4325 78.3872 12.4325 74.9497 12.4325 72.1828 13.2658 70.0864 14.9325 67.9901 16.5992 66.4666 18.7802 65.5161 21.4755 64.5656 24.1708 64.0903 27.12 64.0903 30.3231 64.0903 33.5002 64.5656 36.4429 65.5161 39.1512 66.4666 41.8596 67.9901 44.0341 70.0864 45.6747 72.1828 47.3153 74.9497 48.1356 78.3872 48.1356 82.007 48.1356 84.8651 47.2046 86.9614 45.3427 89.0578 43.4807 90.2622 40.8309 90.5747 37.3934L101.825 37.3934C101.512 41.6903 100.379 45.3166 98.4263 48.2723 96.4731 51.2281 93.8039 53.4677 90.4185 54.9911 87.033 56.5145 83.0226 57.2762 78.3872 57.2762 73.0747 57.2762 68.5044 56.163 64.6763 53.9364 60.8481 51.7098 57.9054 48.5848 55.8481 44.5614 53.7909 40.538 52.7622 35.7919 52.7622 30.3231 52.7622 24.8544 53.7909 20.0953 55.8481 16.0458 57.9054 11.9963 60.8481 8.85828 64.6763 6.63171 68.5044 4.40515 73.0747 3.29187 78.3872 3.29187Z" stroke="#FF0000" stroke-linejoin="round" stroke-miterlimit="10" fill="#FF0000" fill-rule="evenodd"/></g></g><path d="M531.256 666.45 524.42 687.505 538.092 687.505ZM525.514 655.591 537.037 655.591 555.983 708.169 544.537 708.169 540.787 696.606 521.803 696.606 517.936 708.169 506.608 708.169ZM426.045 654.927C429.639 654.927 432.94 655.473 435.948 656.567 438.955 657.661 441.358 659.328 443.155 661.567 444.952 663.807 445.85 666.658 445.85 670.122L434.6 670.122C434.626 667.882 433.793 666.209 432.1 665.102 430.407 663.996 428.376 663.442 426.006 663.442 423.662 663.442 421.722 663.878 420.186 664.751 418.649 665.623 417.881 666.971 417.881 668.794 417.881 669.835 418.207 670.753 418.858 671.548 419.509 672.342 420.713 673.117 422.471 673.872 424.229 674.627 426.774 675.486 430.108 676.45 434.092 677.622 437.36 678.852 439.912 680.141 442.465 681.43 444.359 683.097 445.596 685.141 446.833 687.186 447.452 689.874 447.452 693.208 447.452 696.932 446.54 699.94 444.717 702.231 442.894 704.523 440.414 706.203 437.276 707.27 434.138 708.338 430.59 708.872 426.631 708.872 422.647 708.872 419.06 708.305 415.87 707.173 412.679 706.04 410.147 704.236 408.272 701.762 406.397 699.289 405.459 696.059 405.459 692.075L416.709 692.075C416.761 694.106 417.23 695.701 418.116 696.86 419.001 698.019 420.192 698.846 421.69 699.341 423.187 699.835 424.899 700.083 426.827 700.083 428.676 700.083 430.303 699.861 431.709 699.419 433.116 698.976 434.216 698.292 435.01 697.368 435.804 696.443 436.202 695.265 436.202 693.833 436.202 692.453 435.863 691.313 435.186 690.415 434.509 689.516 433.311 688.696 431.592 687.954 429.873 687.212 427.465 686.411 424.366 685.552 420.746 684.51 417.614 683.364 414.971 682.114 412.328 680.864 410.284 679.249 408.838 677.27 407.393 675.291 406.67 672.713 406.67 669.536 406.67 666.124 407.497 663.344 409.151 661.196 410.804 659.048 413.09 657.466 416.006 656.45 418.923 655.434 422.269 654.927 426.045 654.927ZM479.983 654.887C484.097 654.887 487.886 655.597 491.35 657.016 494.814 658.436 497.626 660.532 499.787 663.305 501.949 666.079 503.134 669.497 503.342 673.559L492.092 673.559C491.806 671.424 491.109 669.653 490.002 668.247 488.896 666.841 487.483 665.786 485.764 665.083 484.045 664.38 482.118 664.028 479.983 664.028 476.545 664.028 473.778 664.861 471.682 666.528 469.586 668.195 468.062 670.376 467.112 673.071 466.161 675.766 465.686 678.716 465.686 681.919 465.686 685.096 466.161 688.039 467.112 690.747 468.062 693.455 469.586 695.63 471.682 697.27 473.778 698.911 476.545 699.731 479.983 699.731 483.603 699.731 486.461 698.8 488.557 696.938 490.653 695.076 491.858 692.427 492.17 688.989L503.42 688.989C503.108 693.286 501.975 696.912 500.022 699.868 498.069 702.824 495.399 705.063 492.014 706.587 488.629 708.11 484.618 708.872 479.983 708.872 474.67 708.872 470.1 707.759 466.272 705.532 462.444 703.305 459.501 700.18 457.444 696.157 455.386 692.134 454.358 687.387 454.358 681.919 454.358 676.45 455.386 671.691 457.444 667.641 459.501 663.592 462.444 660.454 466.272 658.227 470.1 656.001 474.67 654.887 479.983 654.887Z" stroke="#FF0000" stroke-linejoin="round" stroke-miterlimit="10" fill="#FF0000" fill-rule="evenodd"/><text fill="#000000" fill-opacity="0" font-family="Arial,Arial_MSFontService,sans-serif" font-size="53.9844" x="405.459" y="702.124">SCA</text></g></svg>